# xmcd
#
# Track frame offsets:
#	150
#	21334
#	39189
#	62324
#	81387
#	101472
#	125608
#	144746
#	161506
#	183478
#	202013
#	220686
#	239700
#	263591
#	280013
#	298867
#	313730
#
# Disc length: 4408 seconds
#
# Revision: 1
# Processed by: cddbd v1.5.1PL2 Copyright (c) Steve Scherf et al.
# Submitted via: EasyCDDAExtractor 6.2.0.3
#
DISCID=fc113611
DTITLE=JOHN MAYALL
DYEAR=1900
DGENRE=
TTITLE0=Mail Order Mystycs
TTITLE1=Maydell
TTITLE2=I Could Cry
TTITLE3=Wake Up Call
TTITLE4=Loaded Dice
TTITLE5=Undercover Agent For The Blues
TTITLE6=Light The Fuse
TTITLE7=Anything I Can Say
TTITLE8=Nature´s Dissapearing
TTITLE9=I´m A Sucker For Love
TTITLE10=Not At Home
TTITLE11=Ain´t That Lovin´You Baby
TTITLE12=How Can You Live Like That
TTITLE13=Some Other Day
TTITLE14=It Ain´t Safe
TTITLE15=Sen-Ja-Shun
TTITLE16=You Are For Real
EXTD=
EXTT0=
EXTT1=
EXTT2=
EXTT3=
EXTT4=
EXTT5=
EXTT6=
EXTT7=
EXTT8=
EXTT9=
EXTT10=
EXTT11=
EXTT12=
EXTT13=
EXTT14=
EXTT15=
EXTT16=
PLAYORDER=
